<?xml version="1.0" encoding="UTF-8" standalone="no"?>
<!-- Created with Inkscape (http://www.inkscape.org/) -->

<svg
   xmlns:dc="http://purl.org/dc/elements/1.1/"
   xmlns:cc="http://creativecommons.org/ns#"
   xmlns:rdf="http://www.w3.org/1999/02/22-rdf-syntax-ns#"
   xmlns:svg="http://www.w3.org/2000/svg"
   xmlns="http://www.w3.org/2000/svg"
   xmlns:sodipodi="http://sodipodi.sourceforge.net/DTD/sodipodi-0.dtd"
   xmlns:inkscape="http://www.inkscape.org/namespaces/inkscape"
   width="192mm"
   height="192mm"
   viewBox="0 0 192 192"
   version="1.1"
   id="svg170"
   sodipodi:docname="PixelMon.svg"
   inkscape:version="0.92.5 (2060ec1f9f, 2020-04-08)"
   inkscape:export-filename="/home/gabe/git/PBRB-clan-site/content/images/ServerArt/PixelMon.png"
   inkscape:export-xdpi="8.5557899"
   inkscape:export-ydpi="8.5557899">
  <defs
     id="defs164" />
  <sodipodi:namedview
     id="base"
     pagecolor="#ffffff"
     bordercolor="#666666"
     borderopacity="1.0"
     inkscape:pageopacity="0.0"
     inkscape:pageshadow="2"
     inkscape:zoom="0.35"
     inkscape:cx="1259.3598"
     inkscape:cy="320.13094"
     inkscape:document-units="mm"
     inkscape:current-layer="layer1"
     showgrid="false"
     showguides="false"
     fit-margin-top="0"
     fit-margin-left="6"
     fit-margin-right="6"
     fit-margin-bottom="5"
     inkscape:window-width="1864"
     inkscape:window-height="1051"
     inkscape:window-x="56"
     inkscape:window-y="0"
     inkscape:window-maximized="1" />
  <metadata
     id="metadata167">
    <rdf:RDF>
      <cc:Work
         rdf:about="">
        <dc:format>image/svg+xml</dc:format>
        <dc:type
           rdf:resource="http://purl.org/dc/dcmitype/StillImage" />
        <dc:title></dc:title>
      </cc:Work>
    </rdf:RDF>
  </metadata>
  <g
     inkscape:label="Layer 1"
     inkscape:groupmode="layer"
     id="layer1"
     transform="translate(2.6845169,-60.57142)">
    <path
       id="path172-4"
       style="fill:#f6f6f6;fill-opacity:1;stroke:#6c2b0a;stroke-width:10;stroke-miterlimit:4;stroke-dasharray:none;stroke-opacity:1"
       sodipodi:type="arc"
       sodipodi:cx="93.360123"
       sodipodi:cy="157.52678"
       sodipodi:rx="85.04464"
       sodipodi:ry="85.04464"
       sodipodi:start="0.00021440001"
       sodipodi:end="0"
       d="M 178.40476,157.54501 A 85.04464,85.04464 0 0 1 93.346448,242.57142 85.04464,85.04464 0 0 1 8.3154836,157.51766 85.04464,85.04464 0 0 1 93.364681,72.48214 85.04464,85.04464 0 0 1 178.40476,157.52678"
       sodipodi:open="true" />
    <path
       id="path172"
       style="fill:#008ef6;fill-opacity:1;stroke:#6c2b0a;stroke-width:10;stroke-miterlimit:4;stroke-dasharray:none;stroke-opacity:1"
       sodipodi:type="arc"
       sodipodi:cx="93.360123"
       sodipodi:cy="157.52678"
       sodipodi:rx="85.04464"
       sodipodi:ry="85.04464"
       sodipodi:start="3.1415927"
       sodipodi:end="0"
       sodipodi:open="true"
       d="M 8.3154831,157.52678 A 85.04464,85.04464 0 0 1 93.360125,72.48214 85.04464,85.04464 0 0 1 178.40476,157.52678" />
    <path
       style="fill:none;stroke:#6c2b0a;stroke-width:10;stroke-linecap:butt;stroke-linejoin:miter;stroke-miterlimit:4;stroke-dasharray:none;stroke-opacity:1"
       d="M 9.0623946,158.09982 178.40476,157.58352"
       id="path5595"
       inkscape:connector-curvature="0"
       sodipodi:nodetypes="cc" />
    <ellipse
       style="fill:#f6f6f6;fill-opacity:1;stroke:#6c2b0a;stroke-width:10.99868774;stroke-miterlimit:4;stroke-dasharray:none;stroke-opacity:1"
       id="path5597"
       cx="94.609123"
       cy="159.1743"
       rx="19.109394"
       ry="19.476883" />
    <path
       id="path5745"
       transform="matrix(0.26458333,0,0,0.26458333,4.2650864,68.48214)"
       style="fill:#ff7109;fill-opacity:1;stroke:#6c2b0a;stroke-width:37.79527664;stroke-linecap:round;stroke-linejoin:round;stroke-miterlimit:4;stroke-dasharray:none;stroke-opacity:1"
       d="M 433.01953,-1.2441406 C 463.56735,82.862571 401.06896,123.73149 434.75977,216.19922 l 86.02148,0.0215 C 490.53549,145.64223 529.63126,98.398359 528.31445,42.15627 498.89422,23.013293 466.77301,8.3842466 433.01953,-1.2441406 Z M 239.34766,-1.078125 c -27.36964,7.9944661 -53.66503,19.289029 -78.30664,33.634766 6.32358,60.63607 -35.05221,104.677849 -6.28125,183.642579 l 86.02148,0.0215 C 203.4647,129.14251 271.68645,82.79966 239.34766,-1.078125 Z m 50.01367,-9.455078 c 38.84365,91.260971 -29.50531,130.935653 5.39844,226.732423 l 86.02148,0.0215 C 342.09428,125.94463 416.85598,80.205816 375.38281,-10.509766 Z"
       inkscape:connector-curvature="0"
       sodipodi:nodetypes="ccccccccccccccc" />
    <ellipse
       style="fill:#6c2b0a;fill-opacity:1;stroke:none;stroke-width:16.10146523;stroke-miterlimit:4;stroke-dasharray:none;stroke-opacity:1"
       id="path5597-3"
       cx="94.609123"
       cy="159.1743"
       rx="6.1563106"
       ry="6.2747021" />
  </g>
</svg>
