<?xml version="1.0" encoding="UTF-8" standalone="no"?>
<!-- Created with Inkscape (http://www.inkscape.org/) -->

<svg
   xmlns:dc="http://purl.org/dc/elements/1.1/"
   xmlns:cc="http://creativecommons.org/ns#"
   xmlns:rdf="http://www.w3.org/1999/02/22-rdf-syntax-ns#"
   xmlns:svg="http://www.w3.org/2000/svg"
   xmlns="http://www.w3.org/2000/svg"
   xmlns:sodipodi="http://sodipodi.sourceforge.net/DTD/sodipodi-0.dtd"
   xmlns:inkscape="http://www.inkscape.org/namespaces/inkscape"
   id="svg3460"
   version="1.1"
   inkscape:version="0.92.4 5da689c313, 2019-01-14"
   width="600"
   height="600"
   viewBox="0 0 600 600"
   sodipodi:docname="logo-notext.svg">
  <metadata
     id="metadata3466">
    <rdf:RDF>
      <cc:Work
         rdf:about="">
        <dc:format>image/svg+xml</dc:format>
        <dc:type
           rdf:resource="http://purl.org/dc/dcmitype/StillImage" />
        <dc:title />
      </cc:Work>
    </rdf:RDF>
  </metadata>
  <defs
     id="defs3464">
    <filter
       style="color-interpolation-filters:sRGB;"
       inkscape:label="Roughen"
       id="filter6714">
      <feTurbulence
         type="fractalNoise"
         numOctaves="3"
         seed="1"
         baseFrequency="0.013 0.013"
         result="turbulence"
         id="feTurbulence6716" />
      <feDisplacementMap
         in="SourceGraphic"
         in2="turbulence"
         scale="6.6"
         yChannelSelector="G"
         xChannelSelector="R"
         id="feDisplacementMap6718" />
    </filter>
  </defs>
  <sodipodi:namedview
     pagecolor="#ffffff"
     bordercolor="#666666"
     borderopacity="1"
     objecttolerance="10"
     gridtolerance="10"
     guidetolerance="10"
     inkscape:pageopacity="0"
     inkscape:pageshadow="2"
     inkscape:window-width="1920"
     inkscape:window-height="1021"
     id="namedview3462"
     showgrid="false"
     inkscape:snap-bbox="false"
     showguides="true"
     inkscape:zoom="0.52921695"
     inkscape:cx="-216.96961"
     inkscape:cy="304.37299"
     inkscape:window-x="0"
     inkscape:window-y="100"
     inkscape:window-maximized="1"
     inkscape:current-layer="g4848"
     fit-margin-top="0"
     fit-margin-left="0"
     fit-margin-right="0"
     fit-margin-bottom="0" />
  <g
     inkscape:groupmode="layer"
     id="layer1"
     inkscape:label="circle"
     style="display:inline"
     transform="translate(-8.5262556,117.1182)">
    <path
       style="fill:#008ef6;fill-opacity:1;stroke:#000000;stroke-width:0.12291577;stroke-miterlimit:4;stroke-dasharray:none;stroke-opacity:1"
       d="M 540.52617,176.50232 C 545.02254,314.7314 393.16564,424.87058 263.27443,379.40921 130.14881,343.98352 68.636445,167.36887 151.66567,56.576153 226.20605,-60.072205 413.28965,-66.623196 494.8827,44.47665 c 29.58408,37.124062 45.97063,84.45493 45.64347,132.02567 z"
       id="path3480"
       inkscape:connector-curvature="0" />
  </g>
  <g
     inkscape:groupmode="layer"
     id="layer3"
     inkscape:label="fist fill"
     style="display:inline"
     transform="translate(-8.5262556,117.1182)">
    <g
       id="g4386"
       transform="matrix(1.2291519,0,0,1.2291519,47.984842,-135.46679)">
      <path
         inkscape:label="#path3574"
         inkscape:connector-curvature="0"
         id="main_fist_fill"
         d="M 117.84947,414.762 C 115.66341,411.93127 97.475323,388.41267 77.431492,362.49844 57.387664,336.5842 40.988168,315.27145 40.988168,315.13676 c 0,-0.37593 30.799517,-18.34764 31.467594,-18.36154 0.322851,-0.007 0.813582,-0.21727 1.09051,-0.46789 0.276931,-0.25062 0.627884,-0.45567 0.779899,-0.45567 0.152013,0 0.730574,-0.36094 1.285692,-0.80209 0.555118,-0.44116 1.113073,-0.8021 1.239902,-0.8021 0.126833,0 0.47123,-0.24063 0.765331,-0.53473 0.294101,-0.2941 0.751981,-0.53472 1.017514,-0.53472 0.265533,0 0.890476,-0.30079 1.388766,-0.66842 0.49829,-0.36762 1.04443,-0.66841 1.213645,-0.66841 0.169218,0 0.52543,-0.24062 0.791588,-0.53473 0.266159,-0.2941 0.636515,-0.53472 0.823018,-0.53472 0.186502,0 0.696559,-0.30079 1.133457,-0.66842 0.4369,-0.36762 0.927385,-0.66841 1.089972,-0.66841 0.162584,0 0.511319,-0.21571 0.774964,-0.47935 0.263645,-0.26365 0.895294,-0.64441 1.403663,-0.84613 0.50837,-0.20172 1.10478,-0.50761 1.325355,-0.67975 0.220576,-0.17214 0.792067,-0.46771 1.269981,-0.65682 0.477914,-0.1891 0.868935,-0.44793 0.868935,-0.57517 0,-0.12723 0.421099,-0.40729 0.935775,-0.62233 0.514677,-0.21505 0.935776,-0.49328 0.935776,-0.61829 0,-0.12501 0.428954,-0.38241 0.953229,-0.57199 0.524278,-0.18958 1.018405,-0.51453 1.098063,-0.72212 0.07966,-0.20759 0.355801,-0.37743 0.613647,-0.37743 0.257849,0 0.912047,-0.30078 1.453773,-0.66841 0.541728,-0.36763 1.118653,-0.66841 1.282055,-0.66841 0.163402,0 0.691445,-0.30079 1.173428,-0.66841 0.481983,-0.36763 1.00365,-0.66841 1.15927,-0.66841 0.15561,0 0.43321,-0.24063 0.61688,-0.53473 0.18367,-0.2941 0.5042,-0.53473 0.71228,-0.53473 0.20809,0 0.75064,-0.2748 1.20567,-0.61068 0.45503,-0.33586 1.63981,-1.01577 2.63284,-1.5109 0.99302,-0.49513 1.94019,-1.06253 2.10481,-1.26088 0.16462,-0.19836 0.45581,-0.36064 0.6471,-0.36064 0.19129,0 0.70526,-0.30079 1.14216,-0.66841 0.4369,-0.36763 0.90874,-0.66842 1.04853,-0.66842 0.13979,0 0.46576,-0.2338 0.72438,-0.51957 0.25861,-0.28577 0.80384,-0.59285 1.21162,-0.68242 0.40777,-0.0896 1.14055,-0.45732 1.6284,-0.81724 0.48785,-0.35993 1.02545,-0.65441 1.19467,-0.65441 0.16921,0 0.52542,-0.24063 0.79158,-0.53473 0.26616,-0.2941 0.63652,-0.53473 0.82302,-0.53473 0.1865,0 0.69656,-0.30078 1.13346,-0.66841 0.4369,-0.36763 0.9227,-0.66841 1.07955,-0.66841 0.15686,0 0.50044,-0.22466 0.7635,-0.49923 0.26307,-0.27458 0.91986,-0.64168 1.45953,-0.81577 0.53968,-0.1741 1.1259,-0.49086 1.30272,-0.70391 0.17682,-0.21305 0.478,-0.38737 0.66929,-0.38737 0.19129,0 0.70526,-0.30079 1.14215,-0.66841 0.4369,-0.36763 0.9401,-0.66841 1.11822,-0.66841 0.17812,0 0.68132,-0.30079 1.11822,-0.66841 0.4369,-0.36763 0.95087,-0.66841 1.14216,-0.66841 0.19128,0 0.4833,-0.16329 0.64893,-0.36285 0.16563,-0.19957 1.32334,-0.87872 2.5727,-1.50923 1.24936,-0.63051 2.27156,-1.23749 2.27156,-1.34886 0,-0.11137 0.36094,-0.32832 0.80209,-0.4821 0.44115,-0.15379 0.8021,-0.39808 0.8021,-0.54287 0,-0.14479 0.24656,-0.34151 0.54792,-0.43716 0.63648,-0.20201 1.78227,-2.60016 2.02948,-4.24772 0.0904,-0.60246 0.38966,-1.47053 0.66503,-1.92903 0.27537,-0.45851 0.50067,-1.22635 0.50067,-1.70631 0,-0.47997 0.23053,-1.24781 0.51228,-1.70632 0.28175,-0.4585 0.59438,-1.3149 0.69472,-1.9031 0.10034,-0.58821 0.47138,-1.81187 0.82454,-2.71925 0.35316,-0.90738 0.6421,-2.08044 0.6421,-2.6068 0,-0.52636 0.10572,-0.95702 0.23493,-0.95702 0.3185,0 0.76359,-1.21304 0.98101,-2.67364 0.0985,-0.66173 0.34586,-1.39241 0.54967,-1.62373 0.20382,-0.23132 0.44755,-1.01336 0.54163,-1.73787 0.0941,-0.7245 0.33798,-1.51015 0.54199,-1.74589 0.20401,-0.23574 0.53536,-1.25841 0.73632,-2.2726 0.20097,-1.01419 0.54787,-2.20493 0.77091,-2.64608 0.22303,-0.44115 0.49243,-1.3435 0.59865,-2.00523 0.10623,-0.66173 0.4184,-1.49007 0.69371,-1.84077 0.28014,-0.35684 0.50057,-1.06499 0.50057,-1.60815 0,-0.53378 0.2303,-1.40021 0.51178,-1.92539 0.28148,-0.52518 0.59919,-1.53781 0.70604,-2.25029 0.10684,-0.71248 0.40653,-1.66462 0.66598,-2.11586 0.25945,-0.45124 0.55885,-1.36122 0.66534,-2.02218 0.10649,-0.66096 0.41869,-1.62169 0.69379,-2.13496 0.27509,-0.51327 0.50393,-1.29593 0.50853,-1.73926 0.005,-0.44333 0.30428,-1.40763 0.66597,-2.14288 0.36168,-0.73525 0.66253,-1.69776 0.66855,-2.13891 0.006,-0.44115 0.18235,-1.02847 0.39183,-1.30515 0.20949,-0.27667 0.51483,-1.17903 0.67853,-2.00523 0.1637,-0.8262 0.52988,-2.01221 0.81375,-2.63557 0.28386,-0.62336 0.51611,-1.40718 0.51611,-1.74183 0,-0.33464 0.24364,-1.06302 0.54142,-1.61862 0.29779,-0.55559 0.61477,-1.57648 0.70442,-2.26864 0.0897,-0.69215 0.32761,-1.44878 0.5288,-1.68141 0.2012,-0.23262 0.49501,-1.13497 0.65292,-2.00523 0.1579,-0.87026 0.4485,-1.83373 0.64577,-2.14106 0.19726,-0.30733 0.50616,-1.3085 0.68643,-2.22481 0.18027,-0.91631 0.55106,-2.10399 0.82397,-2.63928 0.2729,-0.53529 0.49619,-1.38002 0.49619,-1.87717 0,-0.49716 0.22676,-1.19219 0.50391,-1.54453 0.27714,-0.35233 0.58831,-1.2035 0.69148,-1.8915 0.10317,-0.68799 0.34665,-1.50152 0.54107,-1.80784 0.19442,-0.30632 0.49584,-1.27883 0.66982,-2.16114 0.17399,-0.8823 0.48797,-1.87398 0.69774,-2.20373 0.20977,-0.32975 0.45157,-1.17195 0.53733,-1.87155 0.0858,-0.6996 0.36522,-1.57279 0.62102,-1.94042 0.25579,-0.36762 0.55245,-1.32957 0.65923,-2.13765 0.10678,-0.80808 0.36555,-1.65864 0.57505,-1.89014 0.2095,-0.23149 0.4991,-1.04411 0.64355,-1.80581 0.14446,-0.76169 0.44826,-1.74385 0.67513,-2.18256 0.22686,-0.43871 0.48613,-1.37121 0.57615,-2.07224 0.09,-0.70102 0.38083,-1.63685 0.64624,-2.07962 0.26542,-0.44277 0.56619,-1.43536 0.66839,-2.20576 0.10219,-0.77039 0.27131,-1.40072 0.37582,-1.40072 0.32627,0 0.81048,-1.3223 0.81232,-2.21834 0.001,-0.47099 0.23846,-1.21544 0.52775,-1.65434 0.2893,-0.43889 0.59645,-1.34125 0.68256,-2.00523 0.0861,-0.66399 0.40988,-1.74144 0.71951,-2.39435 0.30963,-0.6529 0.61856,-1.76581 0.68653,-2.47312 0.068,-0.70731 0.20926,-1.28602 0.314,-1.28602 0.30653,0 0.81099,-1.29917 0.81099,-2.08861 0,-0.39965 0.24364,-1.18121 0.54142,-1.73681 0.29779,-0.5556 0.61865,-1.57355 0.71303,-2.26212 0.0944,-0.68857 0.38499,-1.61582 0.64581,-2.06056 0.26082,-0.44473 0.56068,-1.47033 0.66636,-2.27911 0.10568,-0.80878 0.40143,-1.77129 0.65722,-2.13892 0.2558,-0.36762 0.53805,-1.26119 0.62722,-1.98569 0.0892,-0.72451 0.34714,-1.5217 0.57325,-1.77155 0.22611,-0.24985 0.47383,-0.92037 0.5505,-1.49004 0.22862,-1.69888 1.44853,-4.10706 2.09267,-4.13105 0.30382,-0.0113 0.91335,-0.0532 1.3545,-0.0931 0.44115,-0.0399 3.08806,-0.15452 5.88202,-0.25477 6.84884,-0.24574 12.76521,-0.70009 13.14477,-1.00946 0.17121,-0.13954 0.59231,-0.21986 0.93578,-0.17848 1.56675,0.18875 13.88981,-0.39776 17.73582,-0.84412 2.3528,-0.27306 6.98489,-0.56516 10.29353,-0.6491 3.30863,-0.0839 7.21884,-0.33128 8.68934,-0.54964 1.47051,-0.21836 6.22291,-0.51957 10.5609,-0.66935 4.33799,-0.14979 8.30835,-0.40206 8.82302,-0.56061 0.51468,-0.15856 4.1241,-0.40192 8.02094,-0.54081 6.55735,-0.23372 9.06028,-0.42643 13.63558,-1.04985 2.78647,-0.37967 9.88854,-0.33007 10.01455,0.07 0.0579,0.18381 1.39047,5.68818 2.96127,12.23192 1.5708,6.54375 3.6168,15.02589 4.54667,18.8492 0.92987,3.82331 1.94864,8.0343 2.26393,9.35775 0.3153,1.32346 1.17156,4.87272 1.90281,7.88725 0.73125,3.01454 1.69081,6.9849 2.13236,8.82303 1.04286,4.34134 1.57852,6.55926 3.03488,12.56613 0.65956,2.72043 1.50098,6.20954 1.86978,7.75357 0.36883,1.54403 1.21499,5.0151 1.88035,7.7135 0.66539,2.69839 1.20977,5.1293 1.20977,5.40201 0,0.35565 -0.26643,0.54582 -0.94232,0.67263 -0.51826,0.0972 -1.08975,0.38729 -1.26998,0.6446 -0.18023,0.2573 -0.70622,0.55097 -1.16889,0.65258 -0.46265,0.10162 -1.05278,0.41857 -1.3114,0.70433 -0.25861,0.28577 -0.72557,0.51958 -1.03769,0.51958 -0.31212,0 -0.86254,0.20666 -1.22316,0.45925 -0.74259,0.52014 -2.02004,1.20908 -4.54323,2.45023 -0.95583,0.47017 -2.03865,1.02617 -2.40628,1.23555 -0.67038,0.38182 -4.51276,2.23934 -6.01565,2.90814 -0.79807,0.35515 -0.83181,0.33431 -6.81779,-4.21229 -8.41219,-6.3894 -20.92014,-15.93689 -22.99339,-17.55118 -0.95583,-0.74423 -2.29703,-1.77588 -2.98044,-2.29254 -0.68341,-0.51667 -1.30126,-1.16383 -1.37299,-1.43813 -0.17451,-0.66735 0.23979,-6.51533 0.56877,-8.02811 0.29544,-1.3586 0.48803,-3.92641 0.73195,-9.7588 0.0922,-2.20576 0.25975,-4.13078 0.37223,-4.27783 0.22566,-0.29501 0.43921,-2.13752 0.70143,-6.05199 0.1184,-1.7676 0.0622,-3.02643 -0.17923,-4.01047 -0.19348,-0.78882 -0.38278,-1.47852 -0.42064,-1.53268 -0.10773,-0.15406 -5.17465,5.01186 -5.17465,5.27575 0,0.12931 -0.79339,1.06266 -1.76308,2.07411 -0.9697,1.01145 -1.93089,2.16133 -2.13599,2.5553 -0.42496,0.8163 -0.69681,0.92433 -2.91873,1.15981 -0.8823,0.0935 -2.20724,0.33633 -2.94431,0.53961 -0.8566,0.23625 -3.1417,0.39769 -6.33321,0.44744 -4.8822,0.0761 -5.00555,0.0645 -5.55492,-0.52372 -0.30901,-0.33087 -0.7214,-0.60157 -0.91642,-0.60157 -0.19501,0 -0.6415,-0.22408 -0.9922,-0.49795 -0.35069,-0.27388 -0.93841,-0.58849 -1.30604,-0.69914 -0.36762,-0.11066 -0.90903,-0.41501 -1.20314,-0.67633 -0.2941,-0.26132 -0.91569,-0.55563 -1.38132,-0.65402 -0.46563,-0.0984 -0.91645,-0.36089 -1.00181,-0.58335 -0.0854,-0.22246 -0.36612,-0.35667 -0.62391,-0.29824 -0.25778,0.0584 -0.80153,-0.0571 -1.20834,-0.25674 l -0.73965,-0.36298 0.14654,1.78073 c 0.0806,0.9794 0.32319,2.03295 0.53912,2.34122 0.21592,0.30828 0.39304,0.98491 0.39359,1.50363 5.4e-4,0.51872 0.22362,1.30819 0.49572,1.75438 0.2721,0.44619 0.58238,1.4087 0.68951,2.13892 0.10713,0.73021 0.40827,1.81541 0.6692,2.41155 0.26093,0.59614 0.55993,1.67896 0.66445,2.40628 0.10452,0.72731 0.4033,1.74349 0.66396,2.25816 0.26066,0.51468 0.55111,1.50818 0.64544,2.20778 0.0943,0.69961 0.34112,1.5418 0.54841,1.87156 0.2073,0.32975 0.45968,1.18569 0.56084,1.90209 0.10116,0.7164 0.40334,1.73907 0.67151,2.2726 0.26817,0.53352 0.56876,1.57162 0.66798,2.30687 0.0992,0.73525 0.34311,1.5905 0.54198,1.90056 0.19888,0.31005 0.49459,1.29719 0.65715,2.19363 0.16255,0.89645 0.46838,1.96302 0.67961,2.37017 0.21123,0.40715 0.46387,1.27249 0.56141,1.92299 0.0976,0.6505 0.34087,1.49589 0.54071,1.87866 0.19984,0.38276 0.43652,1.11703 0.52596,1.63171 0.0894,0.51467 0.33173,1.54157 0.53844,2.28198 l 0.37584,1.34621 -3.74733,11.21992 c -2.06104,6.17096 -3.8511,11.46055 -3.97792,11.75465 -0.12682,0.2941 -0.68655,1.9785 -1.24384,3.7431 -0.55729,1.76461 -1.11096,3.33689 -1.23036,3.49397 -0.11941,0.15709 -0.34863,0.89889 -0.50938,1.64846 -0.16076,0.74957 -0.52512,1.81955 -0.8097,2.37774 -0.28457,0.55818 -0.51741,1.3061 -0.51741,1.66204 0,0.35594 -0.22791,1.0223 -0.50646,1.48081 -0.27855,0.45851 -0.58874,1.33806 -0.68931,1.95456 -0.10057,0.6165 -0.34731,1.25739 -0.54831,1.42421 -0.201,0.16681 -0.5034,0.98586 -0.672,1.8201 -0.16859,0.83424 -0.45982,1.75859 -0.64716,2.05412 -0.18735,0.29553 -0.47183,1.13773 -0.63217,1.87155 -0.16035,0.73383 -0.53746,1.81085 -0.83803,2.39338 -0.30057,0.58253 -0.54649,1.37992 -0.54649,1.77197 0,0.39206 -0.17386,0.85712 -0.38635,1.03347 -0.2125,0.17636 -0.5258,1.00321 -0.69622,1.83745 -0.17043,0.83424 -0.46765,1.69727 -0.66048,1.91785 -0.19284,0.22057 -0.43722,0.8823 -0.54307,1.4705 -0.10585,0.58821 -0.40055,1.49056 -0.65489,2.00524 -0.25433,0.51467 -0.53993,1.36362 -0.63465,1.88654 -0.0947,0.52293 -0.40238,1.40223 -0.68369,1.954 -0.28132,0.55178 -0.59412,1.50754 -0.69513,2.12392 -0.10101,0.61638 -0.35587,1.31599 -0.56635,1.55467 -0.21048,0.23869 -0.48034,1.05172 -0.59969,1.80673 -0.11935,0.75502 -0.40461,1.58239 -0.6339,1.83862 -0.22929,0.25623 -0.50083,1.03348 -0.60341,1.72724 -0.10257,0.69375 -0.34728,1.3948 -0.54379,1.55789 -0.19651,0.16309 -0.49799,0.97426 -0.66995,1.8026 -0.17197,0.82834 -0.46834,1.75153 -0.65862,2.05153 -0.19028,0.3 -0.4839,1.22801 -0.6525,2.06225 -0.16859,0.83424 -0.4745,1.6562 -0.67979,1.82657 -0.20529,0.17038 -0.45402,0.87143 -0.55274,1.55789 -0.0987,0.68647 -0.35997,1.45433 -0.58055,1.70637 -0.22058,0.25204 -0.50692,1.02491 -0.63631,1.71749 -0.12939,0.69257 -0.40972,1.45202 -0.62296,1.68765 -0.21325,0.23562 -0.46781,0.96668 -0.5657,1.62457 -0.0979,0.65788 -0.34203,1.45924 -0.54253,1.7808 -0.20051,0.32156 -0.49276,1.16375 -0.64946,1.87155 -0.1567,0.7078 -0.53158,1.80028 -0.83307,2.42775 -0.30149,0.62746 -0.61107,1.60981 -0.68794,2.18298 -0.099,0.73791 -0.29205,1.08195 -0.66138,1.17854 -0.51877,0.13566 -3.04792,-0.49364 -3.55826,-0.88536 -0.14705,-0.11288 -0.68846,-0.28172 -1.20314,-0.37522 -0.51467,-0.0935 -1.27977,-0.34948 -1.7002,-0.56887 -0.42044,-0.21939 -1.38295,-0.57176 -2.13892,-0.78305 -2.06218,-0.57639 -3.88652,-1.21999 -5.45771,-1.92541 -0.77528,-0.34808 -1.71258,-0.63287 -2.08291,-0.63287 -0.37032,0 -0.9993,-0.22984 -1.39773,-0.51076 -0.39844,-0.28092 -1.29592,-0.58907 -1.99441,-0.68479 -0.69849,-0.0957 -1.26998,-0.26766 -1.26998,-0.3821 0,-0.31344 -1.27043,-0.82863 -2.04338,-0.82863 -0.37477,0 -1.05112,-0.26326 -1.50299,-0.58502 -0.63797,-0.45427 -1.31249,-0.61079 -3.01802,-0.70031 l -2.19644,-0.11528 0.31509,1.39903 c 0.1733,0.76947 0.52025,1.54905 0.771,1.7324 0.25074,0.18335 0.4559,0.45293 0.4559,0.59906 0,0.14612 0.30078,0.59024 0.66841,0.98691 0.36762,0.39668 0.66841,0.84806 0.66841,1.00307 0,0.155 0.30078,0.63929 0.66841,1.07619 0.36763,0.4369 0.66841,0.93666 0.66841,1.11058 0,0.17392 0.24063,0.4665 0.53473,0.65017 0.2941,0.18367 0.53473,0.55017 0.53473,0.81446 0,0.26429 0.30078,0.88821 0.66841,1.3865 0.36763,0.49829 0.66841,1.01563 0.66841,1.14965 0,0.13401 0.27071,0.58991 0.60157,1.01311 1.41628,1.81152 1.73331,2.30794 2.14698,3.36182 0.38156,0.97207 0.38756,1.15403 0.0473,1.43641 -0.21427,0.17783 -0.38959,0.48906 -0.38959,0.69163 0,0.20257 -0.1777,0.36831 -0.39488,0.36831 -0.21719,0 -0.59197,0.30079 -0.83284,0.66841 -0.24088,0.36763 -0.53552,0.66842 -0.65476,0.66842 -0.11924,0 -0.85737,0.67374 -1.64028,1.4972 -0.78292,0.82346 -1.69419,1.76969 -2.02505,2.10273 -0.33086,0.33304 -0.60157,0.74511 -0.60157,0.9157 0,0.17059 -0.30079,0.42452 -0.66841,0.56429 -0.36763,0.13977 -0.66841,0.41826 -0.66841,0.61888 0,0.20061 -0.30079,0.50179 -0.66841,0.66929 -0.36763,0.16751 -0.66841,0.4876 -0.66841,0.71133 0,0.22373 -0.1504,0.40806 -0.33421,0.40963 -0.33215,0.003 -2.07207,1.64385 -2.07207,1.95429 0,0.0893 -1.62424,1.78007 -3.60942,3.75723 -1.98519,1.97717 -3.60942,3.66993 -3.60942,3.76171 0,0.27 -1.82978,2.02059 -2.11199,2.02059 -0.14204,0 -0.33463,0.24063 -0.42798,0.53473 -0.0933,0.2941 -0.26966,0.53473 -0.39182,0.53473 -0.12217,0 -0.68555,0.4906 -1.25197,1.09023 -0.56642,0.59963 -2.4492,2.55473 -4.18395,4.34468 -1.73476,1.78994 -4.59879,4.75836 -6.36451,6.59649 -1.76572,1.83813 -3.50461,3.64737 -3.86421,4.02053 -0.3596,0.37316 -0.65381,0.82434 -0.65381,1.00262 0,0.17827 -0.15322,0.32414 -0.34048,0.32414 -0.42462,0 -4.47208,4.04218 -4.47208,4.46625 0,0.17065 -0.23448,0.38469 -0.52106,0.47565 -0.28657,0.0909 -0.59351,0.39369 -0.68208,0.67275 -0.0886,0.27906 -0.38936,0.57984 -0.66842,0.66841 -0.27905,0.0886 -0.58179,0.39551 -0.67275,0.68209 -0.091,0.28658 -0.25564,0.52105 -0.36597,0.52105 -0.32957,0 -3.23911,2.80347 -3.23911,3.12103 0,0.16127 -0.30078,0.49029 -0.66841,0.73117 -0.36762,0.24088 -0.66841,0.61566 -0.66841,0.83284 0,0.21719 -0.18305,0.39489 -0.40678,0.39489 -0.22373,0 -0.54382,0.30078 -0.71132,0.66841 -0.16751,0.36762 -0.42453,0.66841 -0.57117,0.66841 -0.14664,0 -1.0748,0.8211 -2.06258,1.82468 -1.30779,1.32869 -1.79596,2.01774 -1.79596,2.53496 0,0.78544 0.55029,1.40088 1.00262,1.12133 0.15993,-0.0988 0.46538,-0.0348 0.67878,0.14229 0.30854,0.25607 0.53201,0.21972 1.09125,-0.17751 0.38678,-0.27473 0.96338,-0.67998 1.28132,-0.90056 0.31794,-0.22057 0.82999,-0.64167 1.13789,-0.93577 0.30789,-0.2941 0.8448,-0.74859 1.19313,-1.00997 1.63051,-1.2235 6.01263,-4.82847 6.27745,-5.16417 0.16327,-0.20696 0.38364,-0.37629 0.48974,-0.37629 0.10609,0 0.75105,-0.45118 1.43324,-1.00262 0.6822,-0.55144 1.47249,-1.18309 1.75621,-1.40366 0.28372,-0.22058 0.7384,-0.6116 1.0104,-0.86894 0.272,-0.25733 0.58055,-0.46788 0.68567,-0.46788 0.10511,0 0.43598,-0.24031 0.73525,-0.53402 0.29927,-0.29371 1.38633,-1.19121 2.41568,-1.99445 1.02935,-0.80323 2.17234,-1.71199 2.53996,-2.01946 0.36763,-0.30748 1.02936,-0.85611 1.47051,-1.21919 0.44115,-0.36308 1.04272,-0.88376 1.33682,-1.15706 0.2941,-0.2733 1.09281,-0.91539 1.77491,-1.42687 0.6821,-0.51147 1.40398,-1.06444 1.60418,-1.22882 2.54949,-2.09329 7.03997,-5.55018 21.05457,-16.20836 l 7.32235,-5.56868 1.367,0.69072 c 4.04263,2.04263 6.35046,3.12765 6.65253,3.12765 0.18627,0 0.78133,0.30078 1.32233,0.66841 0.54102,0.36763 1.18162,0.66841 1.42356,0.66841 0.24195,0 0.74581,0.24063 1.1197,0.53473 0.46388,0.36489 1.08464,0.53473 1.95441,0.53473 1.18927,0 1.29426,-0.0564 1.56813,-0.84199 0.16144,-0.4631 0.29352,-1.16232 0.29352,-1.55383 0,-0.39152 0.22761,-1.60678 0.5058,-2.70059 0.27819,-1.09381 0.58483,-2.65048 0.68142,-3.45925 0.33985,-2.84551 1.27351,-6.26241 1.92334,-7.03883 0.3479,-0.41567 0.63254,-0.90836 0.63254,-1.09486 0,-0.18651 0.22981,-0.54707 0.51068,-0.80126 0.28088,-0.25419 0.58396,-0.75409 0.67351,-1.1109 0.0896,-0.3568 0.26625,-0.64873 0.39265,-0.64873 0.12641,0 0.38674,-0.39102 0.57851,-0.86893 0.19178,-0.47792 0.62747,-1.20904 0.96822,-1.62471 0.34074,-0.41567 0.61953,-0.97429 0.61953,-1.24137 0,-0.26709 0.17667,-0.55341 0.3926,-0.63627 0.21593,-0.0829 0.55823,-0.54691 0.76068,-1.03122 0.20244,-0.48431 0.56719,-1.04569 0.81054,-1.24751 0.24335,-0.20182 0.44246,-0.58601 0.44246,-0.85377 0,-0.26776 0.23977,-0.65477 0.53281,-0.86003 0.29305,-0.20526 0.60973,-0.75776 0.70373,-1.22779 0.094,-0.47004 0.39566,-0.97488 0.67033,-1.12188 0.27468,-0.147 0.49941,-0.43428 0.49941,-0.6384 0,-0.20412 0.30079,-0.72859 0.66841,-1.16549 0.36763,-0.4369 0.66841,-0.96585 0.66841,-1.17544 0,-0.20959 0.30079,-0.6426 0.66842,-0.96225 0.37589,-0.32684 0.66841,-0.87035 0.66841,-1.24195 0,-0.38583 0.22118,-0.77915 0.53157,-0.94526 0.29236,-0.15647 0.60397,-0.57295 0.69246,-0.92551 0.0885,-0.35256 0.39069,-0.84899 0.67157,-1.10317 0.28087,-0.25419 0.51068,-0.61779 0.51068,-0.808 0,-0.19021 0.30078,-0.67039 0.66841,-1.06706 0.36762,-0.39668 0.66841,-0.92564 0.66841,-1.17548 0,-0.24984 0.23603,-0.66785 0.52451,-0.92893 0.28849,-0.26107 0.76321,-0.93262 1.05495,-1.49232 0.84535,-1.62186 1.19639,-2.18189 1.69575,-2.70534 0.25734,-0.26975 0.46789,-0.6188 0.46789,-0.77566 0,-0.15686 0.27101,-0.6682 0.60224,-1.1363 0.80599,-1.13904 1.22141,-1.81261 1.51424,-2.45528 0.13401,-0.2941 0.55482,-0.94913 0.93514,-1.45561 0.38031,-0.50648 0.69148,-1.02584 0.69148,-1.15414 0,-0.12829 0.27101,-0.61625 0.60224,-1.08435 0.6979,-0.98628 1.09027,-1.61107 1.70163,-2.70957 0.24152,-0.43397 0.59085,-0.94075 0.77629,-1.12619 0.18544,-0.18545 0.47782,-1.14484 0.64972,-2.13199 0.17191,-0.98715 0.48339,-2.20368 0.69219,-2.70341 0.20879,-0.49972 0.45795,-1.71186 0.55368,-2.69364 0.0957,-0.98178 0.32851,-1.96553 0.51728,-2.18611 0.18876,-0.22057 0.523,-1.54403 0.74275,-2.94101 0.21974,-1.39698 0.5857,-3.02122 0.81324,-3.60942 0.22755,-0.5882 0.419,-1.58739 0.42545,-2.22042 0.006,-0.63304 0.24224,-1.65695 0.52397,-2.27538 0.28172,-0.61842 0.59578,-2.02551 0.69791,-3.12686 0.10213,-1.10135 0.37026,-2.29545 0.59584,-2.65354 0.22558,-0.3581 0.50395,-1.58161 0.6186,-2.71891 0.11466,-1.13731 0.3948,-2.35222 0.62255,-2.69981 0.22775,-0.34759 0.4944,-1.53036 0.59255,-2.62838 0.0982,-1.09802 0.3974,-2.43336 0.66499,-2.96742 0.26759,-0.53407 0.56798,-1.79736 0.66753,-2.80733 0.0995,-1.00996 0.34787,-2.16676 0.55182,-2.57067 0.20395,-0.4039 0.5081,-1.72735 0.67589,-2.941 0.16779,-1.21366 0.5184,-2.61206 0.77912,-3.10756 l 0.47405,-0.90092 6.23278,12.39622 c 3.42803,6.81793 6.41326,12.82036 6.63384,13.33876 0.22057,0.51839 0.91238,1.86687 1.53734,2.99662 0.62497,1.12975 1.1363,2.224 1.1363,2.43167 0,0.20767 0.23317,0.67401 0.51816,1.03631 0.28498,0.3623 0.59757,0.97516 0.69464,1.36191 0.0971,0.38676 0.34429,0.84245 0.54938,1.01267 0.2051,0.17021 0.50567,0.80256 0.66795,1.40522 0.16228,0.60266 0.52409,1.38691 0.80401,1.74278 0.27993,0.35587 0.50896,0.79505 0.50896,0.97597 0,0.18091 0.21786,0.61586 0.48412,0.96656 0.26627,0.35069 0.62777,1.13469 0.80332,1.7422 0.17557,0.60753 0.49913,1.25391 0.71903,1.43641 0.21989,0.1825 0.39981,0.54148 0.39981,0.79775 0,0.25626 0.24212,0.77373 0.53804,1.14994 0.29591,0.3762 0.73727,1.30091 0.98079,2.05491 0.43778,1.35552 0.41568,1.6086 -1.96913,22.54592 -1.32653,11.64625 -2.30715,21.21583 -2.17915,21.26572 0.128,0.0499 0.38345,0.24144 0.56767,0.42566 0.59401,0.59401 1.47148,0.95413 2.32485,0.95413 0.45812,0 1.20094,0.1903 1.65071,0.42288 0.44976,0.23259 2.03795,0.54007 3.5293,0.6833 1.49134,0.14324 3.11931,0.44779 3.6177,0.67679 0.49839,0.22901 1.94216,0.51385 3.20838,0.63298 1.26621,0.11914 2.7837,0.39546 3.3722,0.61404 0.58851,0.21859 2.09243,0.48612 3.34206,0.5945 1.24963,0.10839 2.52095,0.35944 2.82516,0.55788 0.3042,0.19845 1.86828,0.49167 3.47574,0.65161 1.60744,0.15993 3.30109,0.46085 3.76364,0.66871 0.46256,0.20785 1.90633,0.48998 3.20838,0.62694 1.30204,0.13696 2.7951,0.42989 3.31789,0.65094 0.5228,0.22106 2.02672,0.4884 3.34206,0.59409 1.31533,0.10569 2.63215,0.34719 2.92625,0.53668 0.2941,0.18948 1.82228,0.48213 3.39595,0.65032 1.73841,0.18581 3.25148,0.50478 3.85572,0.81284 l 0.99449,0.50702 -0.97297,0.40653 c -0.53513,0.22359 -1.0824,0.40653 -1.21616,0.40653 -0.13379,0 -0.38658,0.17274 -0.56181,0.38386 -0.1752,0.21113 -0.67932,0.4631 -1.12025,0.55994 -0.44093,0.0968 -0.86608,0.3439 -0.94479,0.54901 -0.0787,0.20512 -0.64207,0.50575 -1.25192,0.66808 -0.60984,0.16232 -1.28928,0.4492 -1.50985,0.63751 -0.22058,0.1883 -0.84159,0.48371 -1.38002,0.65647 -0.53844,0.17275 -1.04017,0.47356 -1.11495,0.66845 -0.0748,0.1949 -0.5546,0.43289 -1.06624,0.52887 -0.51164,0.096 -1.07097,0.34407 -1.24296,0.55131 -0.17199,0.20723 -0.65968,0.45299 -1.08377,0.54614 -0.42408,0.0931 -1.04742,0.38416 -1.38519,0.64671 -0.33777,0.26255 -1.05466,0.62099 -1.5931,0.79654 -0.53843,0.17555 -1.04599,0.49383 -1.12791,0.70729 -0.0819,0.21347 -0.42341,0.38989 -0.75889,0.39206 -0.33548,0.002 -0.91075,0.17854 -1.27837,0.39194 -0.36763,0.2134 -1.17975,0.62846 -1.80471,0.92234 -0.62497,0.29388 -1.1363,0.64354 -1.1363,0.77702 0,0.13348 -0.46316,0.31676 -1.02924,0.40728 -0.56609,0.0905 -1.31805,0.39013 -1.67103,0.6658 -0.35298,0.27567 -0.94257,0.59286 -1.3102,0.70486 -0.36762,0.112 -0.88364,0.42933 -1.14671,0.70519 -0.26307,0.27585 -0.71652,0.50155 -1.00767,0.50155 -0.56818,0 -3.29539,1.3721 -4.00671,2.01584 -0.23729,0.21474 -0.6146,0.39044 -0.83845,0.39044 -0.22386,0 -0.97272,0.30079 -1.66413,0.66841 -0.69141,0.36763 -1.41256,0.66841 -1.60257,0.66841 -0.19,0 -0.54651,0.22217 -0.79225,0.4937 -0.24573,0.27154 -0.91184,0.63303 -1.48023,0.80333 -0.56839,0.17029 -1.18275,0.48954 -1.36525,0.70944 -0.1825,0.2199 -0.60108,0.39981 -0.93018,0.39981 -0.3291,0 -1.0416,0.30079 -1.58332,0.66842 -0.54173,0.36762 -1.08371,0.66841 -1.2044,0.66841 -0.12069,0 -0.51276,0.23073 -0.87128,0.51274 -0.35851,0.28201 -1.08876,0.59471 -1.62276,0.69489 -0.53401,0.10018 -1.17173,0.40404 -1.41717,0.67524 -0.24544,0.2712 -0.78466,0.56743 -1.19828,0.65827 -0.41362,0.0908 -0.81301,0.32408 -0.88754,0.5183 -0.0745,0.19421 -0.73636,0.49726 -1.47074,0.67344 -0.73437,0.17617 -1.54429,0.55133 -1.79982,0.83368 -0.25552,0.28235 -0.67034,0.51336 -0.92182,0.51336 -0.25148,0 -0.7484,0.22903 -1.10427,0.50896 -0.35587,0.27993 -1.14012,0.64173 -1.74278,0.80401 -0.60266,0.16228 -1.24481,0.47466 -1.42699,0.69418 -0.18219,0.21952 -0.54791,0.39913 -0.81273,0.39913 -0.26481,0 -0.83894,0.30079 -1.27584,0.66841 -0.4369,0.36763 -1.03147,0.66841 -1.32128,0.66841 -0.2898,0 -0.81385,0.22228 -1.16454,0.49396 -0.35069,0.27168 -0.96516,0.57392 -1.36548,0.67165 -0.40032,0.0977 -0.95902,0.42581 -1.24155,0.72908 -0.50501,0.54206 -0.70975,0.55056 -12.10564,0.50288 -6.37557,-0.0267 -13.39665,-0.14492 -15.60241,-0.26276 -2.20576,-0.11784 -6.13451,-0.29147 -8.73056,-0.38585 -4.4189,-0.16065 -4.79425,-0.13629 -5.88202,0.38175 -0.91343,0.43501 -4.96971,3.23204 -6.50921,4.48846 -0.32962,0.26901 -3.64447,2.67704 -4.69001,3.407 -0.42124,0.2941 -2.66649,1.93049 -4.98942,3.63641 -2.32294,1.70593 -5.06572,3.67445 -6.09507,4.37449 -1.02936,0.70004 -1.91166,1.3797 -1.96067,1.51035 -0.049,0.13065 -0.22985,0.23755 -0.40184,0.23755 -0.29259,0 -3.83707,2.47422 -4.72265,3.29663 -0.22058,0.20486 -0.70183,0.52607 -1.06946,0.71384 -0.36762,0.18777 -0.84888,0.50796 -1.06946,0.71156 -0.22057,0.2036 -0.8823,0.7256 -1.4705,1.15999 -0.5882,0.43439 -1.24993,0.95639 -1.4705,1.15999 -0.22058,0.2036 -0.70184,0.52379 -1.06946,0.71156 -0.36763,0.18777 -0.84888,0.50457 -1.06946,0.70403 -1.01075,0.9139 -2.1077,1.70225 -2.36863,1.70225 -0.15741,0 -0.41498,0.24063 -0.57238,0.53473 -0.1574,0.2941 -0.43651,0.53473 -0.62025,0.53473 -0.18374,0 -0.69085,0.29659 -1.1269,0.65908 -0.43604,0.36246 -1.45454,1.18442 -2.26332,1.82655 -1.49285,1.18523 -37.93355,27.72655 -38.06799,27.72655 -0.0403,0 -1.86182,-2.31604 -4.04788,-5.14676 z"
         style="opacity:1;fill:#f6f6f6;fill-opacity:1;stroke:none;stroke-width:0.2;stroke-miterlimit:4;stroke-dasharray:none" />
      <path
         inkscape:label="#path3576"
         inkscape:connector-curvature="0"
         id="small_fist_fill"
         d="m 251.16842,221.99534 c -0.16454,-0.94486 -0.29917,-2.03111 -0.29917,-2.41388 0,-0.38277 -0.127,-1.02998 -0.28222,-1.43825 -0.15522,-0.40826 -0.4616,-2.49151 -0.68085,-4.62944 -0.21926,-2.13793 -0.5653,-4.3684 -0.76899,-4.9566 -0.2037,-0.5882 -0.44136,-2.34486 -0.52814,-3.90369 -0.0868,-1.55883 -0.3733,-3.61144 -0.63671,-4.56137 -0.2634,-0.94992 -0.43225,-1.86714 -0.37522,-2.03825 0.0951,-0.28536 0.71333,-0.008 1.80163,0.80695 0.14705,0.11018 1.15238,0.83301 2.23406,1.60629 1.08168,0.77328 2.69556,1.97745 3.5864,2.67594 0.89083,0.69849 1.77622,1.26998 1.96752,1.26998 0.1913,0 0.4766,0.24063 0.634,0.53473 0.1574,0.2941 0.41645,0.53473 0.57568,0.53473 0.15923,0 0.70059,0.36094 1.20304,0.80209 0.50244,0.44115 1.08558,0.80209 1.29587,0.80209 0.21028,0 0.51111,0.24063 0.66851,0.53473 0.1574,0.2941 0.45644,0.53473 0.66453,0.53473 0.2081,0 0.49084,0.201 0.62833,0.44667 0.13748,0.24567 0.60226,0.63669 1.03284,0.86893 1.43823,0.77576 2.75423,1.67603 2.75423,1.88417 0,0.11327 0.71174,0.65219 1.58164,1.19761 0.8699,0.54542 1.79091,1.2229 2.04667,1.50552 0.25577,0.28262 0.5667,0.51385 0.69096,0.51385 0.12426,0 0.43647,0.18754 0.69381,0.41676 1.32933,1.18406 3.92193,3.05898 4.22991,3.05898 0.19349,0 0.50902,0.22153 0.70117,0.4923 0.19215,0.27076 0.62344,0.63774 0.95843,0.8155 0.73927,0.39232 0.54126,0.83111 -0.37505,0.83111 -0.36862,0 -0.89003,0.11764 -1.15869,0.26143 -0.26867,0.14378 -2.50997,0.45358 -4.98067,0.68843 -2.5294,0.24044 -4.81412,0.59349 -5.229,0.80804 -0.42035,0.21737 -1.49808,0.38102 -2.50923,0.38102 -2.16487,0 -6.84375,0.52199 -7.21085,0.80446 -0.14705,0.11316 -1.24564,0.29048 -2.44132,0.39406 l -2.17395,0.18832 -0.29917,-1.71794 z"
         style="fill:#f6f6f6;fill-opacity:1" />
    </g>
  </g>
  <g
     inkscape:groupmode="layer"
     id="layer5"
     inkscape:label="fist line"
     style="display:inline"
     transform="translate(-8.5262556,117.1182)">
    <path
       style="display:inline;fill:none;fill-rule:evenodd;stroke:#000000;stroke-width:1.22915184px;stroke-linecap:butt;stroke-linejoin:miter;stroke-opacity:1"
       d="M 96.716579,251.54335 214.53199,182.41103 266.236,10.916386 404.26827,2.0860311 432.15359,117.34532 l -26.95581,12.08362 -42.75747,-32.532854 3.25329,-39.504189 -9.75986,13.477909 -20.44922,1.394264 -12.54839,-6.971332 14.4074,50.658322 -40.89845,123.62485 -36.71565,-11.61888 12.54838,20.91398 -70.64277,72.03704 71.57228,-54.37635 17.6607,7.90084 3.25329,-17.19594 32.99761,-54.8411 14.40742,-63.67145 31.13858,61.81242 -6.04181,52.98209 67.85425,13.4779 -85.05019,43.22222 -51.58781,-1.39426 -100.38711,72.96656 z"
       id="path3553"
       inkscape:connector-curvature="0" />
    <path
       style="display:inline;fill:none;fill-rule:evenodd;stroke:#000000;stroke-width:1.22915184px;stroke-linecap:butt;stroke-linejoin:miter;stroke-opacity:1"
       d="m 349.79284,104.91536 43.68698,30.67382 -37.1804,5.57707 z"
       id="path3556"
       inkscape:connector-curvature="0" />
  </g>
  <g
     inkscape:groupmode="layer"
     id="layer8"
     inkscape:label="facon fill"
     style="display:inline"
     transform="translate(-8.5262556,117.1182)">
    <g
       style="fill:#ff7109;fill-opacity:1;stroke:none;stroke-width:1.00381505;stroke-miterlimit:4;stroke-dasharray:none;stroke-opacity:1;filter:url(#filter6714)"
       transform="matrix(0,-0.99987692,0.99253545,0,-89.856739,558.15749)"
       id="g4220">
      <path
         inkscape:connector-curvature="0"
         style="color:#000000;font-style:normal;font-variant:normal;font-weight:normal;font-stretch:normal;font-size:medium;line-height:normal;font-family:sans-serif;text-indent:0;text-align:start;text-decoration:none;text-decoration-line:none;text-decoration-style:solid;text-decoration-color:#000000;letter-spacing:normal;word-spacing:normal;text-transform:none;direction:ltr;block-progression:tb;writing-mode:lr-tb;baseline-shift:baseline;text-anchor:start;white-space:normal;clip-rule:nonzero;display:inline;overflow:visible;visibility:visible;opacity:1;isolation:auto;mix-blend-mode:normal;color-interpolation:sRGB;color-interpolation-filters:linearRGB;solid-color:#000000;solid-opacity:1;fill:#ff7109;fill-opacity:1;fill-rule:evenodd;stroke:none;stroke-width:1.00381505;stroke-linecap:square;stroke-linejoin:miter;stroke-miterlimit:4;stroke-dasharray:none;stroke-dashoffset:0;stroke-opacity:1;color-rendering:auto;image-rendering:auto;shape-rendering:auto;text-rendering:auto;enable-background:accumulate"
         d="m 231.01562,366.59375 c -41.64445,0.0472 -78.64508,7.8269 -106.99786,14.82133 l 0.2674,35.95992 c 54.38386,-14.71907 151.32623,-28.81345 251.53125,15.49805 112.71789,49.8448 205.72995,34.42246 263.30273,13.21679 l -0.80219,-35.52085 c -47.73338,20.98172 -134.17059,39.21189 -247.76422,-11.02016 -52.4627,-23.19945 -104.01819,-31.88495 -150.10937,-32.86133 -3.16877,-0.0671 -6.31209,-0.0973 -9.42774,-0.0937 z"
         id="path4627-1"
         sodipodi:nodetypes="cccsccsscc" />
      <path
         inkscape:connector-curvature="0"
         style="color:#000000;font-style:normal;font-variant:normal;font-weight:normal;font-stretch:normal;font-size:medium;line-height:normal;font-family:sans-serif;text-indent:0;text-align:start;text-decoration:none;text-decoration-line:none;text-decoration-style:solid;text-decoration-color:#000000;letter-spacing:normal;word-spacing:normal;text-transform:none;direction:ltr;block-progression:tb;writing-mode:lr-tb;baseline-shift:baseline;text-anchor:start;white-space:normal;clip-rule:nonzero;display:inline;overflow:visible;visibility:visible;opacity:1;isolation:auto;mix-blend-mode:normal;color-interpolation:sRGB;color-interpolation-filters:linearRGB;solid-color:#000000;solid-opacity:1;fill:#ff7109;fill-opacity:1;fill-rule:evenodd;stroke:none;stroke-width:1.00381505;stroke-linecap:square;stroke-linejoin:miter;stroke-miterlimit:4;stroke-dasharray:none;stroke-dashoffset:0;stroke-opacity:1;color-rendering:auto;image-rendering:auto;shape-rendering:auto;text-rendering:auto;enable-background:accumulate"
         d="m 230.48083,417.1325 c -41.64445,0.0472 -78.37768,6.21065 -106.73046,13.20508 l 0,37.57617 c 54.38386,-14.71907 151.32623,-28.81345 251.53125,15.49805 112.71789,49.84479 204.12556,33.07557 263.30273,13.21679 l 0,-37.81054 c -47.73338,20.98172 -134.97278,42.84845 -248.56641,-7.38359 -52.4627,-23.19945 -104.01819,-33.23183 -150.10937,-34.20821 -3.16877,-0.0671 -6.31209,-0.0973 -9.42774,-0.0937 z"
         id="path4627-1-0"
         sodipodi:nodetypes="cccsccsscc" />
      <path
         inkscape:connector-curvature="0"
         style="color:#000000;font-style:normal;font-variant:normal;font-weight:normal;font-stretch:normal;font-size:medium;line-height:normal;font-family:sans-serif;text-indent:0;text-align:start;text-decoration:none;text-decoration-line:none;text-decoration-style:solid;text-decoration-color:#000000;letter-spacing:normal;word-spacing:normal;text-transform:none;direction:ltr;block-progression:tb;writing-mode:lr-tb;baseline-shift:baseline;text-anchor:start;white-space:normal;clip-rule:nonzero;display:inline;overflow:visible;visibility:visible;opacity:1;isolation:auto;mix-blend-mode:normal;color-interpolation:sRGB;color-interpolation-filters:linearRGB;solid-color:#000000;solid-opacity:1;fill:#ff7109;fill-opacity:1;fill-rule:evenodd;stroke:none;stroke-width:1.00381505;stroke-linecap:square;stroke-linejoin:miter;stroke-miterlimit:4;stroke-dasharray:none;stroke-dashoffset:0;stroke-opacity:1;color-rendering:auto;image-rendering:auto;shape-rendering:auto;text-rendering:auto;enable-background:accumulate"
         d="m 231.01562,466.59375 c -41.64445,0.0472 -78.37768,6.21065 -106.73046,13.20508 l 0,37.57617 c 54.38386,-14.71907 151.32623,-28.81345 251.53125,15.49805 112.71789,49.8448 205.72995,34.42246 263.30273,13.21679 l 0,-37.81054 c -47.73338,20.98172 -134.97278,41.50158 -248.56641,-8.73047 -52.4627,-23.19945 -104.01819,-31.88495 -150.10937,-32.86133 -3.16877,-0.0671 -6.31209,-0.0973 -9.42774,-0.0937 z"
         id="path4627-1-7" />
    </g>
  </g>
  <g
     inkscape:groupmode="layer"
     id="layer2"
     inkscape:label="facon line"
     style="display:inline">
    <g
       id="g6706"
       transform="matrix(0,-0.99987692,0.99253545,0,-97.659883,675.25551)"
       style="display:inline;fill:none;fill-opacity:1;stroke:#000000;stroke-width:1.00381505;stroke-miterlimit:4;stroke-dasharray:none;stroke-opacity:1">
      <path
         id="path6708"
         d="m 231.01562,366.59375 c -41.64445,0.0472 -78.37768,6.21065 -106.73046,13.20508 l 0,37.57617 c 54.38386,-14.71907 151.32623,-28.81345 251.53125,15.49805 112.71789,49.8448 205.72995,34.42246 263.30273,13.21679 l 0,-37.81054 c -47.73338,20.98172 -134.97278,41.50158 -248.56641,-8.73047 -52.4627,-23.19945 -104.01819,-31.88495 -150.10937,-32.86133 -3.16877,-0.0671 -6.31209,-0.0973 -9.42774,-0.0937 z"
         style="color:#000000;font-style:normal;font-variant:normal;font-weight:normal;font-stretch:normal;font-size:medium;line-height:normal;font-family:sans-serif;text-indent:0;text-align:start;text-decoration:none;text-decoration-line:none;text-decoration-style:solid;text-decoration-color:#000000;letter-spacing:normal;word-spacing:normal;text-transform:none;direction:ltr;block-progression:tb;writing-mode:lr-tb;baseline-shift:baseline;text-anchor:start;white-space:normal;clip-rule:nonzero;display:inline;overflow:visible;visibility:visible;opacity:1;isolation:auto;mix-blend-mode:normal;color-interpolation:sRGB;color-interpolation-filters:linearRGB;solid-color:#000000;solid-opacity:1;fill:none;fill-opacity:1;fill-rule:evenodd;stroke:#000000;stroke-width:1.00381505;stroke-linecap:square;stroke-linejoin:miter;stroke-miterlimit:4;stroke-dasharray:none;stroke-dashoffset:0;stroke-opacity:1;color-rendering:auto;image-rendering:auto;shape-rendering:auto;text-rendering:auto;enable-background:accumulate"
         inkscape:connector-curvature="0" />
      <path
         id="path6710"
         d="m 231.01562,416.59375 c -41.64445,0.0472 -78.37768,6.21065 -106.73046,13.20508 l 0,37.57617 c 54.38386,-14.71907 151.32623,-28.81345 251.53125,15.49805 112.71789,49.84479 205.72995,34.42245 263.30273,13.21679 l 0,-37.81054 c -47.73338,20.98172 -134.97278,41.50157 -248.56641,-8.73047 -52.4627,-23.19945 -104.01819,-31.88495 -150.10937,-32.86133 -3.16877,-0.0671 -6.31209,-0.0973 -9.42774,-0.0937 z"
         style="color:#000000;font-style:normal;font-variant:normal;font-weight:normal;font-stretch:normal;font-size:medium;line-height:normal;font-family:sans-serif;text-indent:0;text-align:start;text-decoration:none;text-decoration-line:none;text-decoration-style:solid;text-decoration-color:#000000;letter-spacing:normal;word-spacing:normal;text-transform:none;direction:ltr;block-progression:tb;writing-mode:lr-tb;baseline-shift:baseline;text-anchor:start;white-space:normal;clip-rule:nonzero;display:inline;overflow:visible;visibility:visible;opacity:1;isolation:auto;mix-blend-mode:normal;color-interpolation:sRGB;color-interpolation-filters:linearRGB;solid-color:#000000;solid-opacity:1;fill:none;fill-opacity:1;fill-rule:evenodd;stroke:#000000;stroke-width:1.00381505;stroke-linecap:square;stroke-linejoin:miter;stroke-miterlimit:4;stroke-dasharray:none;stroke-dashoffset:0;stroke-opacity:1;color-rendering:auto;image-rendering:auto;shape-rendering:auto;text-rendering:auto;enable-background:accumulate"
         inkscape:connector-curvature="0" />
      <path
         id="path6712"
         d="m 231.01562,466.59375 c -41.64445,0.0472 -78.37768,6.21065 -106.73046,13.20508 l 0,37.57617 c 54.38386,-14.71907 151.32623,-28.81345 251.53125,15.49805 112.71789,49.8448 205.72995,34.42246 263.30273,13.21679 l 0,-37.81054 c -47.73338,20.98172 -134.97278,41.50158 -248.56641,-8.73047 -52.4627,-23.19945 -104.01819,-31.88495 -150.10937,-32.86133 -3.16877,-0.0671 -6.31209,-0.0973 -9.42774,-0.0937 z"
         style="color:#000000;font-style:normal;font-variant:normal;font-weight:normal;font-stretch:normal;font-size:medium;line-height:normal;font-family:sans-serif;text-indent:0;text-align:start;text-decoration:none;text-decoration-line:none;text-decoration-style:solid;text-decoration-color:#000000;letter-spacing:normal;word-spacing:normal;text-transform:none;direction:ltr;block-progression:tb;writing-mode:lr-tb;baseline-shift:baseline;text-anchor:start;white-space:normal;clip-rule:nonzero;display:inline;overflow:visible;visibility:visible;opacity:1;isolation:auto;mix-blend-mode:normal;color-interpolation:sRGB;color-interpolation-filters:linearRGB;solid-color:#000000;solid-opacity:1;fill:none;fill-opacity:1;fill-rule:evenodd;stroke:#000000;stroke-width:1.00381505;stroke-linecap:square;stroke-linejoin:miter;stroke-miterlimit:4;stroke-dasharray:none;stroke-dashoffset:0;stroke-opacity:1;color-rendering:auto;image-rendering:auto;shape-rendering:auto;text-rendering:auto;enable-background:accumulate"
         inkscape:connector-curvature="0" />
    </g>
  </g>
  <g
     style="display:inline"
     inkscape:label="thumb fill"
     id="g4650"
     inkscape:groupmode="layer"
     transform="translate(-8.5262556,117.1182)">
    <g
       transform="matrix(1.2291519,0,0,1.2291519,47.984842,-135.46679)"
       id="g4652">
      <path
         style="opacity:1;fill:#f6f6f6;fill-opacity:1;stroke:none;stroke-width:0.2;stroke-miterlimit:4;stroke-dasharray:none"
         d="m 180.66841,119.90528 c 0.30382,-0.0113 0.91335,-0.0532 1.3545,-0.0931 0.44115,-0.0399 3.08806,-0.15452 5.88202,-0.25477 6.84884,-0.24574 12.76521,-0.70009 13.14477,-1.00946 0.17121,-0.13954 0.59231,-0.21986 0.93578,-0.17848 1.56675,0.18875 13.88981,-0.39776 17.73582,-0.84412 2.3528,-0.27306 6.98489,-0.56516 10.29353,-0.6491 3.30863,-0.0839 7.21884,-0.33128 8.68934,-0.54964 1.47051,-0.21836 6.22291,-0.51957 10.5609,-0.66935 4.33799,-0.14979 8.30835,-0.40206 8.82302,-0.56061 0.51468,-0.15856 4.1241,-0.40192 8.02094,-0.54081 6.55735,-0.23372 9.06028,-0.42643 13.63558,-1.04985 2.78647,-0.37967 9.88854,-0.33007 10.01455,0.07 0.0579,0.18381 1.39047,5.68818 2.96127,12.23192 1.5708,6.54375 3.6168,15.02589 4.54667,18.8492 0.92987,3.82331 1.94864,8.0343 2.26393,9.35775 0.3153,1.32346 1.17156,4.87272 1.90281,7.88725 0.73125,3.01454 1.69081,6.9849 2.13236,8.82303 1.04286,4.34134 1.57852,6.55926 3.03488,12.56613 0.65956,2.72043 1.50098,6.20954 1.86978,7.75357 0.36883,1.54403 1.21499,5.0151 1.88035,7.7135 0.66539,2.69839 1.20977,5.1293 1.20977,5.40201 0,0.35565 -0.26643,0.54582 -0.94232,0.67263 -0.51826,0.0972 -1.08975,0.38729 -1.26998,0.6446 -0.18023,0.2573 -0.70622,0.55097 -1.16889,0.65258 -0.46265,0.10162 -1.05278,0.41857 -1.3114,0.70433 -0.25861,0.28577 -0.72557,0.51958 -1.03769,0.51958 -0.31212,0 -0.86254,0.20666 -1.22316,0.45925 -0.74259,0.52014 -2.02004,1.20908 -4.54323,2.45023 -0.95583,0.47017 -2.03865,1.02617 -2.40628,1.23555 -0.67038,0.38182 -4.51276,2.23934 -6.01565,2.90814 -0.79807,0.35515 -0.83181,0.33431 -6.81779,-4.21229 -8.41219,-6.3894 -20.92014,-15.93689 -22.99339,-17.55118 -0.95583,-0.74423 -2.29703,-1.77588 -2.98044,-2.29254 -0.68341,-0.51667 -1.30126,-1.16383 -1.37299,-1.43813 -0.17451,-0.66735 0.23979,-6.51533 0.56877,-8.02811 0.29544,-1.3586 0.48803,-3.92641 0.73195,-9.7588 0.0922,-2.20576 0.25975,-4.13078 0.37223,-4.27783 0.22566,-0.29501 0.43921,-2.13752 0.70143,-6.05199 0.1184,-1.7676 0.0622,-3.02643 -0.17923,-4.01047 -0.19348,-0.78882 -0.38278,-1.47852 -0.42064,-1.53268 -0.10773,-0.15406 -5.17465,5.01186 -5.17465,5.27575 0,0.12931 -0.79339,1.06266 -1.76308,2.07411 -0.9697,1.01145 -1.93089,2.16133 -2.13599,2.5553 -0.42496,0.8163 -0.69681,0.92433 -2.91873,1.15981 -0.8823,0.0935 -2.20724,0.33633 -2.94431,0.53961 -0.8566,0.23625 -3.1417,0.39769 -6.33321,0.44744 -4.8822,0.0761 -5.00555,0.0645 -5.55492,-0.52372 -0.30901,-0.33087 -0.7214,-0.60157 -0.91642,-0.60157 -0.19501,0 -0.6415,-0.22408 -0.9922,-0.49795 -0.35069,-0.27388 -0.93841,-0.58849 -1.30604,-0.69914 -0.36762,-0.11066 -0.90903,-0.41501 -1.20314,-0.67633 -0.2941,-0.26132 -0.91569,-0.55563 -1.38132,-0.65402 -15.78102,-6.93538 -31.60597,-9.8437 -45.95986,-43.74723 z"
         id="path4654"
         inkscape:connector-curvature="0"
         inkscape:label="#path3574"
         sodipodi:nodetypes="csscsscsscsscssssssccsccccssscsssssscssccssssssssccccc" />
    </g>
  </g>
  <g
     style="display:inline"
     inkscape:label="thumb line"
     id="g4662"
     inkscape:groupmode="layer"
     transform="translate(-8.5262556,117.1182)">
    <path
       inkscape:connector-curvature="0"
       id="path4664"
       d="M 266.236,10.916386 404.26827,2.0860311 432.15359,117.34532 405.19778,129.42894 362.44031,96.896086 365.6936,57.391897 355.93374,70.869806 335.48452,72.26407 322.93613,65.292738"
       style="display:inline;fill:none;fill-rule:evenodd;stroke:#000000;stroke-width:1.22915184px;stroke-linecap:butt;stroke-linejoin:miter;stroke-opacity:1"
       sodipodi:nodetypes="ccccccccc" />
  </g>
  <g
     inkscape:groupmode="layer"
     id="layer4"
     inkscape:label="fingers fill"
     style="display:inline"
     transform="translate(-8.5262556,117.1182)">
    <path
       style="fill:#f6f6f6;fill-opacity:1"
       d="m 430.47329,68.577536 c -0.10448,-0.272245 -0.18996,-0.758731 -0.18996,-1.081064 0,-0.322345 -0.29575,-0.962082 -0.65725,-1.421649 -0.41518,-0.52781 -0.65726,-1.333175 -0.65726,-2.186588 0,-0.743071 -0.36972,-2.409211 -0.82158,-3.702562 -0.45187,-1.29335 -0.82483,-2.806387 -0.8288,-3.362308 -0.004,-0.555908 -0.28292,-1.617834 -0.61988,-2.359824 -0.33696,-0.741977 -0.71594,-2.146886 -0.84216,-3.121996 -0.12624,-0.975111 -0.49877,-2.364471 -0.82785,-3.087458 -0.32908,-0.722987 -0.69693,-2.164954 -0.81743,-3.204362 -0.12058,-1.039408 -0.40002,-2.074587 -0.62111,-2.300419 -0.2211,-0.22582 -0.58286,-1.586786 -0.80394,-3.024378 -0.22107,-1.437579 -0.61381,-2.937119 -0.87276,-3.332304 -0.25893,-0.395197 -0.56927,-1.511205 -0.68962,-2.480011 -0.12034,-0.968805 -0.48059,-2.37096 -0.80053,-3.1159 -0.31992,-0.744927 -0.68821,-2.297715 -0.8184,-3.450635 -0.13019,-1.152907 -0.44193,-2.328837 -0.69275,-2.613164 -0.25082,-0.284328 -0.54453,-1.245574 -0.65269,-2.136106 -0.10817,-0.890521 -0.48344,-2.483981 -0.83397,-3.541015 -0.35052,-1.057034 -0.72693,-2.609821 -0.83646,-3.450635 -0.10952,-0.840813 -0.32304,-1.771281 -0.47446,-2.067704 -0.41107,-0.804738 0.87252,-0.884854 15.15481,-0.946004 13.38553,-0.05728 18.08992,-0.139951 29.74115,-0.522549 3.97644,-0.130586 10.5757,-0.291838 14.66504,-0.358372 l 7.43514,-0.120949 0.20106,0.750471 c 0.11062,0.41275 0.20306,1.124244 0.20552,1.581071 0.002,0.456839 0.21449,1.130438 0.47116,1.496886 0.29549,0.421857 0.54107,1.985744 0.66948,4.263178 0.20613,3.655977 0.74339,7.273506 1.16869,7.869116 0.12906,0.180747 0.32982,2.073579 0.44614,4.206293 0.12386,2.271399 0.42029,4.377477 0.71561,5.084252 0.27727,0.663631 0.58097,2.615782 0.67486,4.338131 0.1991,3.651847 0.74961,7.590333 1.12685,8.061614 0.14496,0.181079 0.36416,1.955679 0.48714,3.943574 0.12298,1.987883 0.41409,4.476756 0.64692,5.530827 0.73394,3.322693 0.72174,3.331727 -5.15348,3.816713 -2.04248,0.168603 -5.00128,0.532875 -6.5751,0.809508 -1.57382,0.276633 -4.75333,0.65633 -7.06557,0.843788 -2.31226,0.187458 -4.64775,0.481385 -5.18999,0.653171 -0.54225,0.171799 -3.55175,0.549812 -6.68781,0.840027 -3.13606,0.290227 -6.05896,0.663423 -6.49532,0.829333 -0.43636,0.165899 -2.23309,0.393009 -3.99272,0.504666 -1.75961,0.111607 -4.88917,0.490849 -6.95455,0.842632 -2.06539,0.351796 -4.94913,0.712822 -6.40832,0.802292 -1.45919,0.08948 -3.12215,0.219527 -3.69548,0.289035 -0.7128,0.08641 -1.10249,-0.03011 -1.23237,-0.368622 z"
       id="finger_1_fill"
       inkscape:connector-curvature="0"
       inkscape:label="#path3566" />
    <path
       style="fill:#f6f6f6;fill-opacity:1"
       d="m 434.2457,139.39887 c -0.98377,-0.16004 -2.03759,-0.51626 -2.34181,-0.79158 -0.30423,-0.27532 -1.12604,-0.58734 -1.82627,-0.69339 -0.70022,-0.10608 -1.71678,-0.4538 -2.25902,-0.77278 -0.54224,-0.31899 -1.65138,-0.68627 -2.46473,-0.81619 -0.81337,-0.12993 -1.65783,-0.38062 -1.8766,-0.55712 -0.21875,-0.17648 -1.43316,-0.58723 -2.69868,-0.91274 -1.26553,-0.32553 -2.53898,-0.82989 -2.82989,-1.1208 -0.29092,-0.29092 -0.77717,-0.54061 -1.08056,-0.55488 -0.30341,-0.0143 -0.10805,-0.18146 0.43426,-0.37152 0.54224,-0.19005 1.23662,-0.56372 1.54307,-0.83034 0.81268,-0.70707 4.279,-2.38446 4.93046,-2.38591 0.307,-6.5e-4 0.95711,-0.37095 1.44468,-0.82281 0.48758,-0.45187 1.14257,-0.82159 1.45553,-0.82159 0.31297,0 0.75226,-0.22075 0.97619,-0.49058 0.22393,-0.26982 1.01843,-0.65329 1.76556,-0.85215 0.74711,-0.19886 1.58022,-0.55491 1.85135,-0.79121 0.27111,-0.2363 1.01053,-0.66882 1.64315,-0.96115 0.63262,-0.29233 1.51992,-0.73056 1.9718,-0.97385 0.45186,-0.24329 1.54528,-0.7901 2.42984,-1.21513 2.28936,-1.10004 2.49962,-1.39773 2.49962,-3.5389 0,-2.70258 -0.61799,-7.23357 -1.12271,-8.2314 -0.23813,-0.47083 -0.50896,-2.40882 -0.60183,-4.30666 -0.0982,-2.00662 -0.38326,-3.96333 -0.68119,-4.67577 -0.2818,-0.67381 -0.66517,-3.130774 -0.85194,-5.459914 -0.18677,-2.329129 -0.51257,-4.661555 -0.724,-5.183183 -0.21142,-0.521627 -0.57483,-2.870905 -0.80757,-5.220614 -0.23274,-2.34972 -0.65528,-4.822024 -0.93896,-5.494026 -0.28369,-0.671989 -0.51579,-1.642921 -0.51579,-2.157616 l 0,-0.935815 3.6971,-0.375518 c 2.03341,-0.206534 4.58441,-0.516551 5.6689,-0.688927 1.08448,-0.172389 4.99712,-0.485552 8.69474,-0.695946 3.69763,-0.210382 6.98881,-0.524799 7.31373,-0.698699 0.32493,-0.173888 3.83723,-0.459162 7.8051,-0.633935 3.96788,-0.174773 8.22422,-0.530207 9.45855,-0.789853 1.96345,-0.41302 15.81245,-1.367604 16.00565,-1.103226 0.0401,0.05482 0.23515,1.800339 0.43354,3.878933 0.1984,2.078594 0.5079,4.44851 0.68778,5.266474 0.17988,0.817976 0.4912,4.12657 0.69184,7.352442 0.21759,3.49856 0.54045,6.213596 0.80015,6.728574 0.27269,0.540765 0.51728,2.827985 0.65462,6.121449 0.12058,2.89196 0.44814,6.44118 0.72788,7.88716 0.27973,1.44598 0.64444,5.06914 0.81047,8.05148 0.16902,3.03633 0.52302,6.14547 0.80449,7.06557 0.57985,1.89561 1.16491,10.98802 0.74327,11.55106 -0.15553,0.20767 -1.57106,0.46155 -3.14562,0.56418 -1.57456,0.10264 -3.38043,0.2583 -4.01305,0.34593 -2.41821,0.335 -5.74841,0.48033 -15.44568,0.67411 -5.5128,0.11013 -10.6148,0.33948 -11.33779,0.50961 -3.02429,0.71165 -27.17583,1.45001 -30.37963,0.92875 z"
       id="finger_2_fill"
       inkscape:connector-curvature="0"
       inkscape:label="#path3568" />
    <path
       style="fill:#f6f6f6;fill-opacity:1"
       d="m 481.18277,203.71312 c -0.0814,-0.0814 -2.28734,-0.22624 -4.90209,-0.32187 -2.61475,-0.0956 -5.78928,-0.23724 -7.05451,-0.31469 -5.19919,-0.31824 -15.10095,-0.53417 -32.04157,-0.69875 -9.85073,-0.0957 -19.4632,-0.26793 -21.36105,-0.38273 -1.89784,-0.1148 -4.11611,-0.23757 -4.92947,-0.27281 -0.81337,-0.0353 -3.77105,-0.1644 -6.57263,-0.28699 -9.91823,-0.43402 -12.06166,-0.49423 -18.25832,-0.51294 l -6.26328,-0.0189 -0.7012,-2.38258 c -0.38567,-1.31042 -0.79965,-3.12199 -0.91996,-4.02574 -0.12034,-0.90373 -0.42819,-2.30863 -0.68416,-3.122 -0.25598,-0.81335 -0.67364,-2.66191 -0.92814,-4.10788 -0.2545,-1.44599 -0.69457,-3.43768 -0.97793,-4.42599 -0.28337,-0.98832 -0.51712,-2.17139 -0.51945,-2.62905 -0.002,-0.45767 -0.28308,-1.72129 -0.62387,-2.80805 -0.34079,-1.08676 -0.72714,-2.86138 -0.85854,-3.94358 -0.13139,-1.08221 -0.38142,-2.24134 -0.5556,-2.57583 -0.17418,-0.3345 -0.59656,-2.10911 -0.93859,-3.94358 -0.34204,-1.83446 -0.84646,-4.14401 -1.12094,-5.13233 -0.27448,-0.98831 -0.49906,-2.20536 -0.49906,-2.70456 0,-0.49919 -0.20923,-1.46519 -0.46494,-2.14664 -0.25572,-0.68147 -0.55163,-1.63504 -0.65758,-2.11907 -0.18617,-0.8505 -0.13471,-0.88651 1.53298,-1.07236 0.94911,-0.10583 4.83121,-0.41489 8.6269,-0.68692 3.7957,-0.27204 11.78144,-0.86116 17.74611,-1.30916 5.96465,-0.44799 11.88002,-0.86824 13.14526,-0.93387 1.26523,-0.0656 5.47993,-0.36235 9.36599,-0.65935 3.88607,-0.297 9.06202,-0.6879 11.50211,-0.86866 2.44008,-0.18076 7.02449,-0.53742 10.18758,-0.79258 3.16307,-0.25516 7.74748,-0.54576 10.18756,-0.64576 2.44009,-0.10006 5.17595,-0.32326 6.07968,-0.4961 0.90375,-0.17286 4.89663,-0.47347 8.87305,-0.66805 8.49478,-0.41565 11.18368,-0.61701 13.63822,-1.0213 0.99411,-0.16373 2.71561,-0.34745 3.82556,-0.40825 l 2.01811,-0.1105 0.23626,4.12626 c 0.12993,2.26946 0.28153,4.49598 0.33688,4.94786 0.21127,1.72479 1.13902,15.5728 1.47512,22.01831 0.19321,3.70532 0.49317,7.25454 0.66656,7.88715 0.32935,1.20163 0.95653,18.14096 0.70876,19.14278 -0.12577,0.50858 -0.60668,0.57511 -4.15701,0.57511 -2.20815,0 -4.0814,-0.0666 -4.1628,-0.14799 z"
       id="finger_3_fill"
       inkscape:connector-curvature="0"
       inkscape:label="#path3570" />
    <path
       style="fill:#f6f6f6;fill-opacity:1"
       d="m 470.86933,266.65315 c -0.54224,-0.13085 -1.28433,-0.39833 -1.64908,-0.59439 -0.36477,-0.19605 -1.91754,-0.45592 -3.45064,-0.57748 -1.53309,-0.12156 -3.6008,-0.4873 -4.59491,-0.81276 -0.99411,-0.32546 -2.97696,-0.69762 -4.40631,-0.82701 -1.42937,-0.12941 -3.20398,-0.45309 -3.94359,-0.7193 -0.73961,-0.26623 -2.74699,-0.62057 -4.46087,-0.78745 -1.71389,-0.16687 -3.56243,-0.51133 -4.1079,-0.76545 -0.54547,-0.25412 -2.53179,-0.62639 -4.41407,-0.82727 -1.88229,-0.20087 -3.59543,-0.50888 -3.80701,-0.68448 -0.21156,-0.17558 -2.14678,-0.55011 -4.3005,-0.83228 -2.15372,-0.28218 -4.54952,-0.72805 -5.32401,-0.99082 -0.7745,-0.26278 -1.88363,-0.48322 -2.46475,-0.48987 -0.5811,-0.006 -2.09174,-0.23784 -3.35698,-0.51376 -1.26523,-0.27593 -3.55744,-0.70897 -5.09379,-0.96233 -1.53635,-0.25335 -3.09768,-0.53543 -3.4696,-0.62685 -0.37193,-0.0915 -6.95278,-1.34791 -14.6241,-2.79224 -7.67133,-1.44432 -15.72248,-2.96749 -17.89145,-3.38484 l -3.94358,-0.75882 0.0928,-1.63638 c 0.0511,-0.90001 0.60563,-9.23425 1.23237,-18.52054 0.62673,-9.28628 1.13952,-17.32635 1.13952,-17.86682 l 0,-0.98267 4.51869,0.18371 c 2.48527,0.10104 5.55387,0.28155 6.8191,0.40112 3.63575,0.34363 4.47803,0.37058 19.06063,0.61011 7.59139,0.12469 16.02079,0.36953 18.73199,0.54407 12.03791,0.77498 17.40211,0.96572 32.37021,1.15102 8.76624,0.10854 16.38228,0.33912 16.92452,0.51241 0.54224,0.1733 3.61083,0.40657 6.8191,0.51839 3.20827,0.11185 5.82794,0.29094 5.82148,0.39806 -0.006,0.10718 -0.52799,2.33909 -1.15897,4.95993 -0.63099,2.62084 -1.36826,5.9268 -1.63837,7.34658 -0.27009,1.41979 -0.64915,2.87678 -0.84235,3.23776 -0.19318,0.36098 -0.48131,1.56548 -0.64027,2.67667 -0.15897,1.11119 -0.58933,2.60619 -0.95636,3.32221 -0.36702,0.71601 -0.66732,1.91726 -0.66732,2.66943 0,0.75217 -0.29659,2.03808 -0.6591,2.85759 -0.36251,0.8195 -0.75462,2.42806 -0.87136,3.57456 -0.12708,1.24818 -0.45599,2.39901 -0.81974,2.8683 -0.38105,0.49161 -0.60748,1.32515 -0.60748,2.23628 0,0.79892 -0.28047,2.07296 -0.62327,2.83122 -0.34279,0.75826 -0.78926,2.46031 -0.99214,3.78233 -0.20289,1.32204 -0.57906,2.72694 -0.83594,3.12201 -0.25686,0.39508 -0.56173,1.53167 -0.67746,2.52579 -0.11578,0.9941 -0.4109,2.25112 -0.65596,2.79336 -0.24505,0.54225 -0.52427,1.2447 -0.6205,1.56101 -0.14198,0.46672 -0.53299,0.56876 -2.07489,0.54146 -1.04497,-0.0186 -2.3436,-0.14071 -2.88584,-0.27157 z"
       id="finger_4_fill"
       inkscape:connector-curvature="0"
       inkscape:label="#path3572" />
  </g>
  <g
     inkscape:groupmode="layer"
     id="layer6"
     inkscape:label="fingers line"
     style="display:inline"
     transform="translate(-8.5262556,117.1182)">
    <path
       style="display:inline;fill:none;fill-rule:evenodd;stroke:#000000;stroke-width:1.22915184px;stroke-linecap:butt;stroke-linejoin:miter;stroke-opacity:1"
       d="m 414.647,11.44486 69.71326,-0.929509 7.43609,52.052579 -63.2067,7.90084 z"
       id="path3558"
       inkscape:connector-curvature="0" />
    <path
       style="display:inline;fill:none;fill-rule:evenodd;stroke:#000000;stroke-width:1.22915184px;stroke-linecap:butt;stroke-linejoin:miter;stroke-opacity:1"
       d="m 432.3077,76.51058 61.34767,-5.577055 7.43609,67.854255 -64.13622,3.71803 -23.23775,-9.2951 24.63202,-12.54839 z"
       id="path3560"
       inkscape:connector-curvature="0" />
    <path
       style="display:inline;fill:none;fill-rule:evenodd;stroke:#000000;stroke-width:1.22915184px;stroke-linecap:butt;stroke-linejoin:miter;stroke-opacity:1"
       d="m 368.17149,153.19518 118.51256,-8.83035 4.64755,60.41818 -112.47074,-2.78854 z"
       id="path3562"
       inkscape:connector-curvature="0" />
    <path
       style="display:inline;fill:none;fill-rule:evenodd;stroke:#000000;stroke-width:1.22915184px;stroke-linecap:butt;stroke-linejoin:miter;stroke-opacity:1"
       d="m 377.46659,208.03629 112.9355,3.71804 -13.01314,57.16489 -102.71089,-19.51972 z"
       id="path3564"
       inkscape:connector-curvature="0" />
  </g>
  <g
     transform="translate(-8.5262556,117.1182)"
     inkscape:groupmode="layer"
     id="g4848"
     inkscape:label="text drop vector"
     style="display:inline" />
  <g
     inkscape:groupmode="layer"
     id="layer10"
     inkscape:label="text vector"
     style="display:inline"
     transform="translate(-8.5262556,117.1182)" />
  <g
     style="display:none"
     inkscape:label="text drop"
     id="g4753"
     inkscape:groupmode="layer"
     transform="translate(-8.5262556,117.1182)">
    <text
       id="text4755"
       y="290.83209"
       x="51.139042"
       style="font-style:normal;font-weight:normal;line-height:0%;font-family:sans-serif;letter-spacing:0px;word-spacing:0px;fill:#000000;fill-opacity:1;stroke:none;stroke-width:1px;stroke-linecap:butt;stroke-linejoin:miter;stroke-opacity:1"
       xml:space="preserve"><tspan
         style="font-style:normal;font-variant:normal;font-weight:normal;font-stretch:normal;font-size:36.8745575px;line-height:1.25;font-family:'Permanent Marker';-inkscape-font-specification:'Permanent Marker';fill:#ffffff"
         y="290.83209"
         x="51.139042"
         id="tspan4757"
         sodipodi:role="line">www.</tspan></text>
    <text
       id="text4759"
       y="442.34229"
       x="51.139042"
       style="font-style:normal;font-weight:normal;line-height:0%;font-family:sans-serif;letter-spacing:0px;word-spacing:0px;fill:#000000;fill-opacity:1;stroke:none;stroke-width:1px;stroke-linecap:butt;stroke-linejoin:miter;stroke-opacity:1"
       xml:space="preserve"><tspan
         style="font-style:normal;font-variant:normal;font-weight:normal;font-stretch:normal;font-size:196.66430664px;line-height:1.25;font-family:'Permanent Marker';-inkscape-font-specification:'Permanent Marker';fill:#ffffff"
         y="442.34229"
         x="51.139042"
         id="tspan4761"
         sodipodi:role="line">PBRB</tspan></text>
    <text
       id="text4763"
       y="478.12842"
       x="459.65878"
       style="font-style:normal;font-weight:normal;line-height:0%;font-family:sans-serif;letter-spacing:0px;word-spacing:0px;fill:#000000;fill-opacity:1;stroke:none;stroke-width:1px;stroke-linecap:butt;stroke-linejoin:miter;stroke-opacity:1"
       xml:space="preserve"><tspan
         style="font-style:normal;font-variant:normal;font-weight:normal;font-stretch:normal;font-size:36.8745575px;line-height:1.25;font-family:'Permanent Marker';-inkscape-font-specification:'Permanent Marker';fill:#ffffff"
         y="478.12842"
         x="459.65878"
         id="tspan4765"
         sodipodi:role="line">.co.uk</tspan></text>
  </g>
  <g
     transform="translate(-8.5262556,117.1182)"
     style="display:none"
     inkscape:label="text "
     id="g4862"
     inkscape:groupmode="layer">
    <text
       id="text4864"
       y="285.71979"
       x="47.885754"
       style="font-style:normal;font-weight:normal;line-height:0%;font-family:sans-serif;letter-spacing:0px;word-spacing:0px;fill:#000000;fill-opacity:1;stroke:none;stroke-width:1px;stroke-linecap:butt;stroke-linejoin:miter;stroke-opacity:1"
       xml:space="preserve"><tspan
         style="font-style:normal;font-variant:normal;font-weight:normal;font-stretch:normal;font-size:36.8745575px;line-height:1.25;font-family:'Permanent Marker';-inkscape-font-specification:'Permanent Marker'"
         y="285.71979"
         x="47.885754"
         id="tspan4866"
         sodipodi:role="line">www.</tspan></text>
    <text
       id="text4868"
       y="437.22998"
       x="47.885754"
       style="font-style:normal;font-weight:normal;line-height:0%;font-family:sans-serif;letter-spacing:0px;word-spacing:0px;fill:#000000;fill-opacity:1;stroke:none;stroke-width:1px;stroke-linecap:butt;stroke-linejoin:miter;stroke-opacity:1"
       xml:space="preserve"><tspan
         style="font-style:normal;font-variant:normal;font-weight:normal;font-stretch:normal;font-size:196.66430664px;line-height:1.25;font-family:'Permanent Marker';-inkscape-font-specification:'Permanent Marker'"
         y="437.22998"
         x="47.885754"
         id="tspan4870"
         sodipodi:role="line">PBRB</tspan></text>
    <text
       id="text4872"
       y="473.01614"
       x="456.40552"
       style="font-style:normal;font-weight:normal;line-height:0%;font-family:sans-serif;letter-spacing:0px;word-spacing:0px;fill:#000000;fill-opacity:1;stroke:none;stroke-width:1px;stroke-linecap:butt;stroke-linejoin:miter;stroke-opacity:1"
       xml:space="preserve"><tspan
         style="font-style:normal;font-variant:normal;font-weight:normal;font-stretch:normal;font-size:36.8745575px;line-height:1.25;font-family:'Permanent Marker';-inkscape-font-specification:'Permanent Marker'"
         y="473.01614"
         x="456.40552"
         id="tspan4874"
         sodipodi:role="line">.co.uk</tspan></text>
  </g>
</svg>
